<?xml version="1.0" encoding="utf-8"?>
<!-- Generator: Adobe Illustrator 16.0.0, SVG Export Plug-In . SVG Version: 6.00 Build 0)  -->
<!DOCTYPE svg PUBLIC "-//W3C//DTD SVG 1.1//EN" "http://www.w3.org/Graphics/SVG/1.1/DTD/svg11.dtd">
<svg version="1.1" id="Layer_1" xmlns="http://www.w3.org/2000/svg" xmlns:xlink="http://www.w3.org/1999/xlink" x="0px" y="0px"
	 width="631.234px" height="631.252px" viewBox="0 0 631.234 631.252" enable-background="new 0 0 631.234 631.252"
	 xml:space="preserve">
<path id="outside" fill="#FCD4C9" d="M516.414,559.114c-134.492,110.917-333.395,91.801-444.294-42.696
	c-110.9-134.479-91.768-333.378,42.715-444.28C249.297-38.776,448.21-19.659,559.112,114.805
	C670.014,249.3,650.881,448.227,516.414,559.114z"/>
<path id="core" fill="#FFCA20" d="M338.945,536.189c-26.699,22.023-66.221,18.228-88.246-8.492L95.051,338.962
	c-22.021-26.726-18.236-66.223,8.488-88.257l188.738-155.62c26.717-22.051,66.223-18.254,88.245,8.471l155.666,188.728
	c22.021,26.728,18.222,66.232-8.487,88.257L338.945,536.189z"/>
</svg>
